<svg xmlns="http://www.w3.org/2000/svg" fill="none" viewBox="0 0 24 24">
  <path fill="#09703E" d="M13 9.75H7C6.59 9.75 6.25 9.41 6.25 9 6.25 8.59 6.59 8.25 7 8.25H13C13.41 8.25 13.75 8.59 13.75 9 13.75 9.41 13.41 9.75 13 9.75ZM19.04 14.8C17.53 14.8 16.25 13.68 16.13 12.24 16.05 11.41 16.35 10.6 16.95 10.01 17.45 9.49 18.16 9.2 18.91 9.2H21C21.99 9.23 22.75 10.01 22.75 10.97V13.03C22.75 13.99 21.99 14.77 21.03 14.8H19.04ZM20.97 10.7H18.92C18.57 10.7 18.25 10.83 18.02 11.07 17.73 11.35 17.59 11.73 17.63 12.11 17.68 12.77 18.32 13.3 19.04 13.3H21C21.13 13.3 21.25 13.18 21.25 13.03V10.97C21.25 10.82 21.13 10.71 20.97 10.7Z"/>
  <path fill="#09703E" d="M16 21.25H7C3.56 21.25 1.25 18.94 1.25 15.5V8.5C1.25 5.42 3.14998 3.19001 6.09998 2.82001C6.36998 2.78001 6.68 2.75 7 2.75H16C16.24 2.75 16.55 2.76 16.87 2.81C19.82 3.15 21.75 5.39 21.75 8.5V9.95001C21.75 10.36 21.41 10.7 21 10.7H18.92C18.57 10.7 18.25 10.83 18.02 11.07L18.01 11.08C17.73 11.35 17.6 11.72 17.63 12.1C17.68 12.76 18.32 13.29 19.04 13.29H21C21.41 13.29 21.75 13.63 21.75 14.04V15.49C21.75 18.94 19.44 21.25 16 21.25ZM7 4.25C6.76 4.25 6.52999 4.26999 6.29999 4.29999C4.09999 4.57999 2.75 6.18 2.75 8.5V15.5C2.75 18.08 4.42 19.75 7 19.75H16C18.58 19.75 20.25 18.08 20.25 15.5V14.8H19.04C17.53 14.8 16.25 13.68 16.13 12.24C16.05 11.42 16.35 10.6 16.95 10.02C17.47 9.49002 18.17 9.20001 18.92 9.20001H20.25V8.5C20.25 6.16 18.88 4.54998 16.66 4.28998C16.42 4.24998 16.21 4.25 16 4.25H7Z"/>
</svg>
